# xmcd
# 
# Track frame offsets:
#     150
#     9835
#     21809
#     37971
#     48208
#     60115
#     73418
#     84394
#     99101
#     109728
#     125330
#     138542
#     156533
#     170549
#     186556
#     200435
#     216771
#     228426
#     238088
# 
# Disc length: 3347
# 
# Revision: 3
# Processed by: cddbd v1.5.2PL0 Copyright (c) Steve Scherf et al.
# Submitted via: fre:ac v1.0.31
# 
DISCID=fe0d1113
DTITLE=Various Artist - RCA SWING100! CD4 ボーカルⅡ
DYEAR=2006
DGENRE=Jazz
TTITLE0=トニー・ハーパー with マーティ・ペイチ・ビッグバンド - あなたと夜と音楽と
TTITLE1=トニー・ハーパー with マーティ・ペイチ・ビッグバンド - スリーピン・ビー
TTITLE2=トニー・ハーパー with マーティ・ペイチ・ビッグバンド - ラウンド・ミッドナイト
TTITLE3=ローズマリー・クルーニー with ボブ・トンプソン・オーケストラ - エヴリシングズ・カミング・アップ・ローゼズ
TTITLE4=ローズマリー・クルーニー with ボブ・トンプソン・オーケストラ - バイ・バイ・ブラックバード
TTITLE5=ヘレン・オコネル with マリオン・エヴァンス・オーケストラ - スター・アイズ
TTITLE6=ヘレン・オコネル with マリオン・エヴァンス・オーケストラ - タンジェリン
TTITLE7=ヘレン・グレイコ with ジャッド・コンロン・オーケストラ - ブラック・コーヒー
TTITLE8=ジュリー・ウィルソン with フィル・ムーア・オーケストラ - 恋とは何でしょう
TTITLE9=リナ・ホーン with レイニー・ヘイトン・オーケストラ - スピーク・ロウ
TTITLE10=リナ・ホーン with レイニー・ヘイトン・オーケストラ - ライク・サムワン・イン・ラヴ
TTITLE11=リナ・ホーン with レイニー・ヘイトン・オーケストラ - バット・ビューティフル
TTITLE12=リナ・ホーン with レイニー・ヘイトン・オーケストラ - ポルカ・ドッツ・アンド・ムーンビームズ
TTITLE13=リナ・ホーン with ロバート・ファーノン・オーケストラ - マイ・ファニー・ヴァレンタイン
TTITLE14=ダイナ・ショア with ハリー・ジマーマン・オーケストラ - 降っても晴れても
TTITLE15=ダイナ・ショア with ハリー・ジマーマン・オーケストラ - センチメンタル・ジャーニー
TTITLE16=ダイナ・ショア with ハリー・ジマーマン・オーケストラ - ジャスト・フレンズ
TTITLE17=ダイナ・ショア  with フランク・デヴォル・オーケストラ - イージー・トゥ・ラヴ
TTITLE18=ジェイ・P・モーガン with ヒューゴ・ウィンターハルター・オーケストラ - 私の心はパパのもの
EXTD=
EXTT0=
EXTT1=
EXTT2=
EXTT3=
EXTT4=
EXTT5=
EXTT6=
EXTT7=
EXTT8=
EXTT9=
EXTT10=
EXTT11=
EXTT12=
EXTT13=
EXTT14=
EXTT15=
EXTT16=
EXTT17=
EXTT18=
PLAYORDER=
